<?xml version="1.0" encoding="utf-8"?>
<svg version="1.1" id="Ebene_1" xmlns="http://www.w3.org/2000/svg" xmlns:xlink="http://www.w3.org/1999/xlink" x="0px" y="0px"
	 width="530px" height="100px" viewBox="0 0 530 100" style="enable-background:new 0 0 530 100;" xml:space="preserve">
<style type="text/css">
	.st0{fill:#FFFFFF;}
</style>
<path class="st0" d="M23.7,76.5c-0.5,0.1-1,0.3-1.6,0.4c-0.6,0.1-1.3,0.3-2,0.4c-0.7,0.1-1.4,0.2-2.2,0.3c-0.7,0.1-1.5,0.1-2.2,0.1
	c-1.8,0-3.3-0.2-4.5-0.7C10,76.5,8.9,75.8,8.1,75c-0.8-0.8-1.4-1.8-1.8-3c-0.4-1.1-0.6-2.4-0.6-3.8c0-0.6,0-1.2,0.1-1.9
	c0.1-0.7,0.1-1.5,0.3-2.2c0.1-0.8,0.2-1.6,0.4-2.4c0.1-0.8,0.3-1.6,0.4-2.3C7,59.2,7.2,58.3,7.5,57c0.3-1.3,0.6-3,1-4.9
	s0.9-4.1,1.4-6.5c0.5-2.4,1-4.8,1.5-7.3c0.5-2.5,1.1-4.9,1.5-7.3c0.5-2.4,1-4.5,1.4-6.5c0.4-1.9,0.8-3.6,1-4.9
	c0.3-1.3,0.5-2.2,0.5-2.5h12.6l-8.9,42c-0.2,0.9-0.4,1.9-0.7,3.1c-0.2,1.1-0.4,2.1-0.4,3c0,1,0.3,1.7,0.9,2.1
	c0.6,0.4,1.4,0.6,2.2,0.6c0.7,0,1.4-0.1,2.1-0.2c0.7-0.1,1.3-0.3,1.9-0.6c-0.3,1.6-0.7,3.1-1,4.7C24.3,73.4,24,74.9,23.7,76.5
	L23.7,76.5z"/>
<path class="st0" d="M69.2,63.5c-0.2,0.8-0.4,1.8-0.5,3s-0.3,2.4-0.5,3.6c-0.1,1.2-0.3,2.5-0.4,3.7c-0.1,1.2-0.1,2.2-0.1,3.1H55.1
	c0-0.4,0-0.9,0.1-1.5s0.1-1.2,0.1-1.9c0-0.6,0.1-1.3,0.2-1.9c0.1-0.6,0.1-1.1,0.2-1.5h-0.2c-0.8,1-1.5,2-2.4,3
	c-0.8,0.9-1.7,1.8-2.7,2.5c-1,0.7-2.1,1.3-3.3,1.7c-1.2,0.4-2.6,0.6-4.2,0.6c-2,0-3.7-0.4-5.2-1.1c-1.5-0.7-2.8-1.7-3.9-3.1
	c-1-1.3-1.8-3-2.4-4.9c-0.5-1.9-0.8-4.1-0.8-6.5c0-1.2,0.1-2.7,0.4-4.5c0.3-1.8,0.8-3.7,1.5-5.7s1.7-3.9,3-5.9
	c1.3-1.9,2.9-3.7,4.9-5.3c2-1.6,4.4-2.8,7.3-3.8c2.8-1,6.2-1.5,10-1.5c1.5,0,3,0.1,4.5,0.2c1.5,0.1,3,0.3,4.4,0.5
	c1.5,0.2,2.9,0.4,4.2,0.7c1.4,0.3,2.6,0.5,3.8,0.8L69.2,63.5L69.2,63.5z M58.8,44.4c-0.7-0.1-1.4-0.1-2.1-0.1
	c-1.8,0-3.4,0.3-4.8,0.9s-2.5,1.4-3.6,2.4c-1,1-1.9,2.1-2.5,3.3c-0.7,1.2-1.2,2.5-1.6,3.8s-0.7,2.5-0.9,3.7
	c-0.2,1.2-0.3,2.3-0.3,3.2c0,1,0.1,1.9,0.3,2.7c0.2,0.8,0.5,1.5,0.9,2.1s0.9,1.1,1.5,1.4c0.6,0.3,1.3,0.5,2.1,0.5
	c1.5,0,2.8-0.4,4-1.3c1.2-0.9,2.2-2,3.1-3.3c0.9-1.4,1.6-2.9,2.2-4.6c0.6-1.7,1.1-3.4,1.4-5l2.1-9.4C60.1,44.6,59.5,44.5,58.8,44.4
	L58.8,44.4z"/>
<path class="st0" d="M106.4,45.7H97l-3.2,15c0,0.3-0.1,0.7-0.2,1.1c-0.1,0.4-0.1,0.8-0.2,1.2s-0.1,0.8-0.2,1.1
	c0,0.4-0.1,0.6-0.1,0.9c0,1,0.3,1.8,0.8,2.3c0.5,0.5,1.4,0.7,2.6,0.7c0.3,0,0.7,0,1.2-0.1c0.5-0.1,1-0.2,1.5-0.3
	c0.5-0.1,1-0.3,1.5-0.4s0.9-0.3,1.1-0.4l-1.9,9.2c-0.5,0.2-1,0.4-1.7,0.5c-0.7,0.2-1.4,0.4-2.2,0.5c-0.8,0.2-1.7,0.3-2.5,0.4
	c-0.9,0.1-1.7,0.2-2.6,0.2c-2,0-3.7-0.3-5-0.8c-1.3-0.5-2.4-1.2-3.2-2.1c-0.8-0.9-1.4-2-1.7-3.2c-0.3-1.2-0.5-2.5-0.5-3.9
	c0-0.4,0-0.9,0.1-1.5c0-0.5,0.1-1.1,0.2-1.7c0.1-0.6,0.2-1.2,0.3-1.7c0.1-0.6,0.2-1.1,0.3-1.6l3.2-15.5h-6.2l2.2-9.2h5.9l2-9.4
	l13.1-3.2L99,36.6h9.5L106.4,45.7L106.4,45.7z"/>
<path class="st0" d="M121.1,71.1c0,1-0.2,1.9-0.6,2.7c-0.4,0.8-0.9,1.5-1.6,2.1c-0.7,0.6-1.5,1-2.4,1.4c-0.9,0.3-1.9,0.5-2.9,0.5
	c-1.1,0-2-0.1-2.8-0.4s-1.6-0.7-2.2-1.3c-0.6-0.6-1.1-1.2-1.5-1.9c-0.4-0.7-0.5-1.6-0.5-2.5c0-1,0.2-1.9,0.6-2.8
	c0.4-0.8,0.9-1.5,1.6-2.1c0.7-0.6,1.5-1,2.4-1.4s1.9-0.5,3-0.5c1,0,1.9,0.2,2.8,0.5c0.9,0.3,1.6,0.7,2.2,1.3c0.6,0.5,1.1,1.2,1.4,2
	C120.9,69.4,121.1,70.2,121.1,71.1L121.1,71.1z"/>
<path class="st0" d="M141.5,74.7c-0.6,2.8-1.4,5.5-2.4,8.1c-1,2.5-2.3,4.8-4,6.7c-1.6,1.9-3.6,3.4-6,4.6c-2.4,1.1-5.2,1.7-8.4,1.7
	c-1.2,0-2.3-0.1-3.5-0.4c-1.2-0.2-2.1-0.5-2.8-0.9l2-9.5c0.2,0.2,0.5,0.3,0.8,0.5c0.3,0.2,0.7,0.3,1.1,0.4c0.4,0.1,0.8,0.2,1.2,0.3
	s0.7,0.1,1.1,0.1c2,0,3.6-0.8,5-2.4c1.4-1.6,2.4-4.2,3.2-7.8l8.4-39.4h12.6L141.5,74.7L141.5,74.7z M153,23.6c0,1-0.2,1.9-0.6,2.8
	c-0.4,0.8-0.9,1.5-1.6,2.1c-0.7,0.6-1.5,1-2.4,1.4c-0.9,0.3-1.9,0.5-2.9,0.5c-1.1,0-1.9-0.1-2.8-0.5c-0.9-0.3-1.6-0.7-2.2-1.3
	c-0.6-0.5-1.1-1.2-1.5-1.9c-0.4-0.7-0.5-1.5-0.5-2.4c0-1,0.2-1.9,0.6-2.8s0.9-1.5,1.6-2.1c0.7-0.6,1.5-1,2.4-1.4
	c0.9-0.3,1.9-0.5,3-0.5c1,0,1.9,0.1,2.8,0.4c0.8,0.3,1.6,0.7,2.2,1.3c0.6,0.5,1.1,1.2,1.5,1.9C152.8,22,153,22.7,153,23.6L153,23.6z
	"/>
<path class="st0" d="M190,63.5c-0.2,0.8-0.4,1.8-0.5,3s-0.3,2.4-0.5,3.6c-0.1,1.2-0.3,2.5-0.4,3.7c-0.1,1.2-0.1,2.2-0.1,3.1H176
	c0-0.4,0-0.9,0.1-1.5s0.1-1.2,0.1-1.9c0-0.6,0.1-1.3,0.2-1.9c0.1-0.6,0.1-1.1,0.2-1.5h-0.2c-0.8,1-1.5,2-2.4,3
	c-0.8,0.9-1.7,1.8-2.7,2.5c-1,0.7-2.1,1.3-3.3,1.7c-1.2,0.4-2.6,0.6-4.2,0.6c-2,0-3.7-0.4-5.2-1.1c-1.5-0.7-2.8-1.7-3.9-3.1
	c-1-1.3-1.8-3-2.4-4.9c-0.5-1.9-0.8-4.1-0.8-6.5c0-1.2,0.1-2.7,0.4-4.5c0.3-1.8,0.8-3.7,1.5-5.7s1.7-3.9,3-5.9
	c1.3-1.9,2.9-3.7,4.9-5.3c2-1.6,4.4-2.8,7.3-3.8c2.8-1,6.2-1.5,10-1.5c1.5,0,3,0.1,4.5,0.2c1.5,0.1,3,0.3,4.4,0.5
	c1.5,0.2,2.9,0.4,4.2,0.7c1.4,0.3,2.6,0.5,3.8,0.8L190,63.5L190,63.5z M179.6,44.4c-0.7-0.1-1.4-0.1-2.1-0.1c-1.8,0-3.4,0.3-4.8,0.9
	c-1.4,0.6-2.5,1.4-3.6,2.4c-1,1-1.9,2.1-2.5,3.3c-0.7,1.2-1.2,2.5-1.6,3.8s-0.7,2.5-0.9,3.7c-0.2,1.2-0.3,2.3-0.3,3.2
	c0,1,0.1,1.9,0.3,2.7c0.2,0.8,0.5,1.5,0.9,2.1s0.9,1.1,1.5,1.4c0.6,0.3,1.3,0.5,2.1,0.5c1.5,0,2.8-0.4,4-1.3c1.2-0.9,2.2-2,3.1-3.3
	c0.9-1.4,1.6-2.9,2.2-4.6s1.1-3.4,1.4-5l2.1-9.4C181,44.6,180.3,44.5,179.6,44.4L179.6,44.4z"/>
<path class="st0" d="M232.1,47.6c-0.9-0.7-2-1.3-3.5-1.8c-1.4-0.5-3-0.7-4.6-0.7c-1.9,0-3.6,0.4-5.2,1.3c-1.5,0.9-2.9,2-3.9,3.5
	c-1.1,1.4-1.9,3-2.5,4.8s-0.9,3.5-0.9,5.2c0,2.7,0.6,4.8,1.9,6.2c1.3,1.5,3.1,2.2,5.7,2.2c0.8,0,1.6-0.1,2.5-0.2
	c0.9-0.2,1.7-0.4,2.5-0.6c0.8-0.3,1.6-0.6,2.4-0.9c0.8-0.3,1.5-0.7,2.1-1.1l-1.9,9.5c-1.8,0.9-3.7,1.6-5.7,2.1c-2,0.5-4,0.8-6,0.8
	c-2.6,0-4.9-0.4-6.9-1.2c-2-0.8-3.6-1.9-5-3.4c-1.3-1.5-2.3-3.2-3-5.2c-0.7-2-1-4.3-1-6.7c0-2.3,0.3-4.5,0.8-6.6
	c0.5-2.1,1.3-4.1,2.2-6c1-1.9,2.2-3.6,3.6-5.2c1.4-1.6,3.1-3,4.9-4.1c1.8-1.2,3.9-2,6.1-2.7c2.2-0.6,4.7-1,7.3-1
	c1.2,0,2.3,0.1,3.4,0.2c1.1,0.1,2.1,0.3,3,0.5c0.9,0.2,1.7,0.5,2.4,0.7c0.7,0.3,1.2,0.5,1.6,0.8L232.1,47.6L232.1,47.6z"/>
<path class="st0" d="M263.9,55.6l10.4,21.3h-13.8l-8.8-20.9h-0.2L247,76.8h-12.5l12.7-59.6h12.5L251.8,54h0.2l16-17.4h14.7
	L263.9,55.6L263.9,55.6z"/>
<path class="st0" d="M324.4,50.7c0,1.6-0.2,3.3-0.5,5.3c-0.3,1.9-0.9,3.9-1.6,6c-0.8,2-1.8,4-3.1,5.9c-1.3,1.9-3,3.6-4.9,5.1
	c-2,1.5-4.3,2.7-7.1,3.6c-2.7,0.9-5.9,1.4-9.5,1.4c-1.5,0-3.1-0.1-4.6-0.3c-1.6-0.2-3.1-0.5-4.6-0.9c-1.5-0.4-2.9-0.8-4.3-1.4
	s-2.6-1.1-3.7-1.8l11.9-56.2H305L301.2,35c-0.1,0.5-0.2,1.2-0.4,1.9c-0.2,0.7-0.3,1.4-0.5,2.1c-0.2,0.7-0.3,1.4-0.5,2
	c-0.2,0.6-0.3,1.2-0.4,1.6h0.3c0.8-1,1.6-2,2.4-2.8c0.9-0.9,1.8-1.6,2.9-2.2c1-0.6,2.2-1.1,3.4-1.5s2.5-0.5,3.9-0.5
	c1.8,0,3.4,0.3,4.9,0.9s2.8,1.6,3.8,2.8c1.1,1.3,1.9,2.8,2.5,4.7C324.1,46,324.4,48.2,324.4,50.7L324.4,50.7z M311.9,52
	c0-2.1-0.4-3.8-1.3-5c-0.8-1.2-2.2-1.9-4.1-1.9c-1.3,0-2.4,0.4-3.5,1.1s-2.1,1.7-3,2.9c-0.9,1.2-1.6,2.6-2.3,4.2
	c-0.6,1.6-1.2,3.2-1.5,4.9l-2.1,9.8c0.6,0.3,1.3,0.5,2.3,0.7c0.9,0.2,1.9,0.3,3,0.3c1.3,0,2.6-0.2,3.7-0.7c1.1-0.5,2.2-1.2,3.1-2
	c0.9-0.9,1.7-1.8,2.5-3c0.7-1.1,1.3-2.3,1.8-3.6c0.5-1.3,0.9-2.6,1.1-3.9C311.8,54.6,311.9,53.3,311.9,52L311.9,52z"/>
<path class="st0" d="M370.6,52.5c0,1.9-0.2,3.8-0.5,5.7s-0.9,3.9-1.7,5.8c-0.8,1.9-1.8,3.6-3,5.3s-2.8,3.1-4.5,4.4
	c-1.8,1.2-3.8,2.2-6.1,3c-2.3,0.7-5,1.1-7.9,1.1s-5.6-0.4-7.8-1.3s-4-2.1-5.5-3.6c-1.4-1.5-2.5-3.3-3.2-5.4
	c-0.7-2.1-1.1-4.3-1.1-6.7c0-1.9,0.2-3.9,0.6-5.9c0.4-2,1-3.9,1.8-5.8c0.8-1.9,1.9-3.6,3.2-5.2c1.3-1.6,2.8-3.1,4.6-4.3
	c1.8-1.2,3.8-2.2,6.1-2.9c2.3-0.7,4.9-1.1,7.7-1.1s5.3,0.4,7.5,1.2c2.2,0.8,4,1.9,5.5,3.4s2.6,3.3,3.4,5.3S370.6,50,370.6,52.5
	L370.6,52.5z M358.1,52.7c0-1.1-0.1-2.1-0.4-3c-0.3-0.9-0.6-1.7-1.2-2.4c-0.5-0.7-1.1-1.2-1.9-1.6c-0.7-0.4-1.6-0.6-2.6-0.6
	c-1.6,0-3.1,0.5-4.4,1.4c-1.3,0.9-2.4,2.2-3.3,3.7c-0.9,1.5-1.6,3.2-2,5c-0.5,1.9-0.7,3.7-0.7,5.6c0,2.4,0.6,4.2,1.7,5.5
	c1.1,1.3,2.6,2,4.3,2s3.2-0.5,4.5-1.4s2.4-2.1,3.3-3.6c0.9-1.5,1.5-3.1,2-5C357.9,56.5,358.1,54.6,358.1,52.7L358.1,52.7z"/>
<path class="st0" d="M402.6,56.6l9,20.2h-13.8l-3.6-10.5c-0.2-0.6-0.4-1.3-0.6-1.9c-0.2-0.7-0.4-1.4-0.5-2h-0.2
	c-0.4,0.7-0.8,1.3-1.2,2c-0.4,0.7-0.8,1.3-1.2,1.8l-8,10.7h-14.6l17.9-20.4l-8.6-19.9H391l3.3,10.6c0.3,0.7,0.5,1.4,0.7,2.2
	s0.3,1.5,0.4,2h0.2c0.3-0.6,0.7-1.3,1.3-2c0.5-0.8,1-1.5,1.4-2l7.9-10.8h14.1L402.6,56.6L402.6,56.6z"/>
<path class="st0" d="M431,71.1c0,1-0.2,1.9-0.6,2.7c-0.4,0.8-0.9,1.5-1.6,2.1c-0.7,0.6-1.5,1-2.4,1.4c-0.9,0.3-1.9,0.5-2.9,0.5
	s-2-0.1-2.8-0.4c-0.9-0.3-1.6-0.7-2.2-1.3c-0.6-0.6-1.1-1.2-1.5-1.9c-0.4-0.7-0.5-1.6-0.5-2.5c0-1,0.2-1.9,0.6-2.8
	c0.4-0.8,0.9-1.5,1.6-2.1c0.7-0.6,1.5-1,2.4-1.4c0.9-0.3,1.9-0.5,3-0.5c1,0,1.9,0.2,2.8,0.5c0.9,0.3,1.6,0.7,2.2,1.3
	c0.6,0.5,1.1,1.2,1.4,2C430.9,69.4,431,70.2,431,71.1L431,71.1z"/>
<path class="st0" d="M478.8,63.5c-0.2,0.8-0.4,1.8-0.5,3s-0.3,2.4-0.5,3.6c-0.1,1.2-0.3,2.5-0.4,3.7c-0.1,1.2-0.1,2.2-0.1,3.1h-12.6
	c0-0.4,0-0.9,0.1-1.5c0-0.6,0.1-1.3,0.2-1.9c0.1-0.7,0.1-1.3,0.2-1.9c0.1-0.6,0.1-1.1,0.1-1.5h-0.2c-0.8,1.2-1.7,2.2-2.5,3.1
	c-0.9,0.9-1.8,1.8-2.8,2.4c-1,0.7-2.1,1.2-3.3,1.6c-1.2,0.4-2.5,0.6-3.9,0.6c-1.9,0-3.7-0.3-5.2-1c-1.5-0.7-2.8-1.7-3.9-3
	c-1.1-1.3-1.9-2.9-2.5-4.8c-0.6-1.9-0.8-4.1-0.8-6.6c0-3.5,0.6-6.9,1.8-10.2c1.2-3.2,2.9-6.1,5.1-8.5c2.2-2.5,5-4.4,8.2-5.9
	c3.2-1.5,6.9-2.2,11-2.2c1,0,2.1,0,3.2,0.2c1.1,0.1,2,0.2,2.7,0.4l4-18.9h12.4L478.8,63.5L478.8,63.5z M468.4,44.4
	c-0.7-0.1-1.4-0.1-2.1-0.1c-1.8,0-3.4,0.3-4.8,0.9c-1.4,0.6-2.5,1.4-3.6,2.4c-1,1-1.9,2.1-2.5,3.3c-0.7,1.2-1.2,2.5-1.6,3.8
	c-0.4,1.3-0.7,2.5-0.9,3.7c-0.2,1.2-0.3,2.2-0.3,3.1c0,1,0.1,1.9,0.3,2.7c0.2,0.8,0.5,1.5,0.9,2.1c0.4,0.6,0.9,1.1,1.6,1.4
	c0.6,0.3,1.4,0.5,2.3,0.5c1.4,0,2.7-0.4,3.9-1.3c1.1-0.9,2.1-2,3-3.3c0.9-1.4,1.6-2.9,2.2-4.6c0.6-1.7,1.1-3.4,1.5-5.2l2-9.1
	C469.8,44.6,469.1,44.5,468.4,44.4L468.4,44.4z"/>
<path class="st0" d="M526.8,47c0,2.1-0.4,4-1.3,5.7c-0.9,1.7-2.3,3.2-4.4,4.5c-2.1,1.3-4.8,2.2-8.2,3s-7.6,1.1-12.7,1.2
	c0,0.2-0.1,0.3-0.1,0.4v0.4c0,0.8,0.1,1.6,0.4,2.4c0.3,0.8,0.7,1.5,1.4,2.2c0.6,0.7,1.5,1.2,2.5,1.6c1,0.4,2.4,0.6,3.9,0.6
	c0.9,0,2-0.1,3.1-0.3c1.1-0.2,2.2-0.4,3.4-0.7c1.2-0.3,2.3-0.7,3.4-1.2c1.1-0.5,2.2-1,3.2-1.5l-1.9,9.3c-0.8,0.4-1.7,0.8-2.8,1.2
	c-1.1,0.4-2.2,0.7-3.4,1.1s-2.5,0.6-3.9,0.7c-1.4,0.2-2.8,0.3-4.2,0.3c-3,0-5.6-0.4-7.8-1.3c-2.2-0.9-4-2.1-5.4-3.6
	c-1.4-1.5-2.4-3.3-3.1-5.3c-0.7-2-1-4.2-1-6.4c0-3.4,0.6-6.7,1.7-9.8c1.1-3.1,2.8-5.8,4.9-8.1c2.1-2.3,4.6-4.2,7.6-5.6
	c3-1.4,6.3-2.1,10-2.1c2.6,0,4.9,0.3,6.8,0.9s3.4,1.5,4.6,2.5s2,2.3,2.6,3.6C526.5,44.1,526.8,45.5,526.8,47L526.8,47z M515,47.1
	c0-1-0.4-1.8-1.1-2.4c-0.7-0.6-1.7-1-3-1c-1.2,0-2.3,0.2-3.3,0.7c-1.1,0.5-2,1.2-2.9,2.1c-0.9,0.9-1.6,1.9-2.3,3.1
	c-0.6,1.2-1.1,2.5-1.4,4c4.7,0,8.2-0.5,10.5-1.6S515,49.3,515,47.1L515,47.1z"/>
</svg>
